<?xml version="1.0" encoding="utf-8"?>
<!-- Generator: Adobe Illustrator 26.5.0, SVG Export Plug-In . SVG Version: 6.00 Build 0)  -->
<svg version="1.1" id="Layer_1" xmlns="http://www.w3.org/2000/svg" xmlns:xlink="http://www.w3.org/1999/xlink" x="0px" y="0px"
	 viewBox="0 0 1511.4 728" style="enable-background:new 0 0 1511.4 728;" xml:space="preserve">
<style type="text/css">
	.st0{fill:#FEFEFE;}
	.st1{fill:none;stroke:#FFDD00;stroke-linecap:round;stroke-linejoin:round;}
	.st2{fill:none;stroke:#FFDD00;stroke-width:0.998;stroke-linecap:round;stroke-linejoin:round;}
	.st3{fill:#FEDE00;}
</style>
<path id="Black_Lozenge" d="M416,203.6c-1.9-2.2-4-4.2-6.4-5.9l-0.1,0l-0.1,0c-4.7-3.4-11.4-7.3-21-7.3l0,0c-2.5,0-5.1,0.3-7.6,0.7
	l-44.6,8l-15.9,2.9l0,0.2l-7.9,1.4l-35.4,6.1l-11.8,2l-0.2,0.5l-51.9,9.1l0,0l0,0l-35.2,6.3c-9.7,1.8-18.5,6.9-24.9,14.5
	c-7.2,8.1-10.9,17.8-10.6,27.8c0,0.5,0,1,0.1,1.6l-42,7.2c-24.2,4.2-42,25.4-42.3,50.5L55.1,623c-0.3,26.1,20.6,47.5,46.8,47.8
	c3,0,5.9-0.2,8.9-0.7l1291-230.7c23.2-4.2,40.3-24,41.2-47.5l10.4-282.5l0-0.2l0-0.4l0-0.4l0-0.2c-0.1-29-23.7-52.3-52.7-52.2
	c-2.9,0-5.8,0.3-8.6,0.8l-425.8,73.1l3.4-7.3L985.4,88L948,94.5l-22.5,3.9l-2,0.3l0-0.1l-14.1,2l-22.6,3.2l-28.3,4.1l0.1,0.2
	l-12.4,1.8l-12.6,1.8l-3.1,10.1c-6.7-3.7-14.2-5.6-21.9-5.4c-4.7,0.1-9.5,0.5-14.1,1.4l-27.1,4.4l-26.5,4.2l-42.4,7.8
	c-11.6,2.1-19,8.8-23.6,13.9c-6.2-3.8-13.3-5.8-20.5-5.8c-2.5,0-5.1,0.2-7.6,0.7l0,0l0,0l-43.8,8.1l-7.1,1.3l0-0.1l-17.3,3.3
	l-35.8,6.8l-11.8,2.2l0,0.1l-16.4,2.9l0,0l-11.6,2.1l-6.4,1.1l-25.2,4.5l-9.4,1.7l-36.3,6.4c-5.6,1-9.3,6.3-8.3,11.9
	c0.1,0.4,0.2,0.9,0.3,1.3l1.9,6.1L416,203.6z"/>
<g id="White_Text">
	<g id="YOU">
		<path id="U" class="st0" d="M1258.1,331.5c0.8-15.5,1.6-30.9,2.3-46.4c0.1-2.9,0.9-3.8,3.9-4.3c14-2,27.9-4.4,41.9-6.8
			c3.6-0.6,5.1-0.3,4.8,4.2c-1.4,23.8-2.3,47.6-3.4,71.4c-0.3,6.1,1.6,8.2,7.8,8c3.5-0.1,6.9-0.7,10.3-1.6c7.9-2.1,9.7-4.9,10.1-13
			c1.1-22.8,2.3-45.6,3.2-68.4c0.2-4.4,1.4-6.1,6.1-6.7c13.4-1.7,26.6-4,39.9-6.4c3.3-0.6,3.9,0.2,3.8,3.3
			c-1.1,27.8-2.1,55.6-3.2,83.4c-0.4,5.7-1.5,11.2-3.3,16.6c-4.3,14-13.5,22.2-27.9,25.4c-23.3,5.1-46.7,9.1-70.4,11.1
			c-17.8,1.5-25.9-5.8-27.3-24.8c-0.5-7.5-0.1-15,0.2-22.5S1257.7,339,1258.1,331.5L1258.1,331.5z"/>
		<path id="O" class="st0" d="M1250.7,340.6c-1-20.4-13.4-35.3-33.2-40.6c-7.3-2-14.7-2.4-22.3-2.6c-17.7,0.7-35.1,3.4-51.7,10.1
			c-28.6,11.5-48.5,29.9-51.5,62.9c-2.6,28.6,12.5,50.2,41,53.7c28.4,3.6,55.4-2.4,80.5-15.9
			C1240.2,393.8,1252.1,370.7,1250.7,340.6z M1192.4,370.9c-5.9,13.5-19.7,20.4-30.8,15.6c-11.1-4.9-15.3-19.7-9.4-33.2
			s19.7-20.4,30.8-15.6C1194.1,342.6,1198.3,357.4,1192.4,370.9z"/>
		<path id="Y_00000002343696008041559030000004691314575627271866_" class="st0" d="M1108.8,312c-15,29.8-30,59.6-45,89.5
			c-1.4,2.6-2.1,5.6-2.2,8.5c-0.3,9.8-0.9,19.6-1.1,29.5c-0.1,3-1.3,4-4,4.5c-14.3,2.5-28.5,5-42.7,7.8c-3.4,0.7-3.5-0.7-3.3-3.3
			c0.5-9.3,0.7-18.7,1.2-28c0.3-4-0.6-7.9-2.5-11.4c-12-23.3-23.9-46.7-35.8-70.1c-0.8-1.5-1.5-3-2.4-4.9c11.5-2,22.8-4,34.1-5.9
			c0.5-0.1,1-0.1,1.5-0.2c4.6-0.6,9.9-3.7,13.5-1.4c3.2,2.1,4.3,7.6,6.3,11.6c4,8,7.9,16.1,11.9,24.3c2.3-1.9,2.9-4.6,4.1-6.9
			c5.3-10.5,10.6-21.1,15.6-31.8c1.7-3.7,3.8-5.4,8-6c13.3-1.9,26.6-4.4,39.9-6.7C1106.9,310.8,1108.5,309.5,1108.8,312z"/>
	</g>
	<g id="WITH">
		<path id="H_00000172442487600854537160000017066022927842874503_" class="st0" d="M790.5,428.9c0.7-20,1.5-39.9,2.1-59.9
			c0.1-2.6,0.7-3.6,3.5-4.1c14.6-2.4,29.2-5,43.7-7.7c3.5-0.7,5-0.3,4.7,4c-0.8,11.3-0.9,22.6-1.5,33.9c-0.2,3.2,0.3,4.5,3.9,3.8
			c10.4-2.1,20.9-4,31.4-5.6c2.9-0.4,3.4-1.5,3.5-4.1c0.3-11.8,0.8-23.6,1.1-35.5c0.1-3,0.8-4.3,4.1-4.8c14.4-2.3,28.8-5,43.2-7.7
			c3.6-0.7,4.8-0.2,4.6,4c-1.5,39.4-2.9,78.9-4.1,118.3c-0.1,2.9-1.3,3.5-3.7,3.9c-15.1,2.7-30.1,5.4-45.1,8.3
			c-3.1,0.6-3.2-0.6-3.1-3c0.4-10.5,0.6-21,1.2-31.5c0.2-3.1-0.8-3.7-3.6-3.2c-10.5,2-20.9,3.9-31.4,5.6c-2.7,0.4-3.5,1.4-3.6,4
			c-0.2,10.5-0.8,21-1,31.5c-0.1,3.4-1.5,4.4-4.6,4.9c-13.9,2.4-27.8,4.9-41.7,7.6c-3.9,0.7-5.8,0.8-5.5-4.4
			C789.5,467.9,789.9,448.4,790.5,428.9z"/>
		<path id="T_00000123436440504374913060000006913708949244812672_" class="st0" d="M701.2,508.5c0-12.4-0.2-24.7,0.1-37
			c0.3-14.5,0.9-29,1.5-43.5c0.1-2.9-0.1-4-3.7-3.3c-9.9,2-20,3.6-29,5.1c0-13.5,0-26.9,0-40.4c0-3.8,3.2-2.9,5.1-3.2
			c14.7-2.7,29.5-5.2,44.2-7.8c21.6-3.8,43.2-7.6,63.9-11.2c0,13.6,0,27.2,0,40.8c0,2.9-2.5,2.4-4,2.7c-8,1.5-16,3.1-24.1,4.2
			c-3.6,0.5-4.5,1.8-4.6,5.3c-0.7,25.3-1.7,50.6-2.6,75.9c-0.1,2.3-0.1,4-3.1,4.5C730.1,503.2,715.2,505.9,701.2,508.5z"/>
		<path id="I" class="st0" d="M609.6,461.4c0.7-20.1,1.5-40.3,2.1-60.4c0.1-2.9,0.9-3.8,3.8-4.3c14.1-2.3,28.2-4.9,42.2-7.5
			c3.3-0.6,4.2,0.2,4,3.6c-1.3,32.6-2.4,65.2-3.6,97.8c-0.3,7.5-0.5,15-0.6,22.5c0,2.7-1,3.6-3.7,4.1c-14.1,2.4-28.1,5.1-42.2,7.7
			c-3.2,0.6-4.3,0-4.1-3.6C608.3,501.4,608.9,481.4,609.6,461.4z"/>
		<path id="W_00000039124875227328988510000003862467133516747687_" class="st0" d="M607.9,398.1c-13.4,36.9-26.6,73.1-39.7,109.4
			c-2.9,8-5.8,15.9-8.6,23.9c-0.5,2.1-2.3,3.6-4.5,3.8c-10.3,1.7-20.6,3.6-30.9,5.7c-3.2,0.6-4.7,0.1-5.6-3.3
			c-3.5-13-7.4-25.9-11.4-39.8c-5,15.4-9.9,29.8-14.4,44.3c-1.1,3.5-2.7,5.1-6.3,5.6c-10.2,1.6-20.3,3.5-30.5,5.4
			c-2.6,0.5-3.7,0-4.6-2.7c-12.6-38.2-25.3-76.3-38.1-114.3c-1.2-3.4-0.1-3.7,2.8-4.2c15.6-2.6,31.2-5.2,46.7-8.3
			c3.4-0.7,3.9,0.5,4.5,3.1c2.8,11.6,5.7,23.2,8.8,36.1c3-11,6.6-20.8,8.1-30.9c1.5-10.6,6.7-14.5,16.9-15.1
			c8.6-0.5,17.1-2.7,25.5-4.5c4.3-0.9,6,0.2,6.8,4.6c1.7,9.8,4.1,19.5,6.1,29.3c0.1,1.4,0.7,2.7,1.6,3.8
			c3.7-12.9,7.5-25.6,10.9-38.4c0.8-3.1,2.3-4.1,5.4-4.6C574.1,404.2,590.6,401.1,607.9,398.1z"/>
	</g>
	<g id="BE">
		<path id="E_00000014609492159540843470000013454785395715349377_" class="st0" d="M313.2,495.9c18.3-3.2,36.7-6.3,55-9.5
			c6.6-1.2,6.5-1.3,6.1,5.4c-0.4,8.3-0.8,16.6-1,25c-0.1,2.9-0.8,4.2-4,4.7c-16.8,2.7-33.4,5.7-50.2,8.5c-8.4,1.4-8.5,1.3-7.9,10.7
			l60.3-10.3c0,11.9,0,23.7,0,35.5c0,2.5-1.5,2.8-3.5,3.2c-32.7,5.9-65.4,11.9-98.2,17.8c-9.3,1.7-9.5,1.5-9.1-8.1
			c1.5-39,3.1-77.9,4.5-116.9c0.1-3.5,1.1-4.7,4.7-5.3c34-5.7,67.9-11.6,101.8-17.5c3.2-0.6,4.8-0.6,4.5,3.6
			c-0.8,9.6-1.2,19.3-1.1,29c0,4.5-1.8,5.4-5.5,6c-16.6,2.7-33.1,5.5-49.7,8.3C312.2,487.5,312.2,487.6,313.2,495.9z"/>
		<path id="B" class="st0" d="M236.8,525.8c6.1-5.7,11.1-11.6,14-19.1c7.3-19.3-3.3-46.2-32.8-41.1c-32.8,5.7-65.7,10.4-98.6,15.4
			c-3.3,0.5-3.8,2-3.8,4.9c-0.8,41.7-1.6,83.3-2.6,125c-0.1,3.5,0.7,4.6,4.3,3.9c39.2-7.3,78.5-14.5,117.8-21.5
			c10.3-1.8,16-7.9,19-17.4c2-6.3,2.1-12.8,2.3-19.3C256.9,540.2,252.1,532.5,236.8,525.8z M195.1,563.9l-25,3.4l0.4-11.9l24-4.4
			c0.1,0,0.3,0,0.4,0c3,0.1,5.3,2.5,5.2,5.5C200.3,559.8,198.3,562.9,195.1,563.9z M196.7,518.9l-25,3.4l0.4-11.9l24-4.4
			c0.1,0,0.3,0,0.4,0c3,0.1,5.3,2.5,5.2,5.5C202,514.8,199.9,517.9,196.7,518.9z"/>
	</g>
	<g id="_x34_TH">
		<path id="Bar" class="st0" d="M1390.9,206c1,4.2-0.9,5.9-6,6.7c-44.9,7.2-89.8,14.7-134.7,22.2c-3,0.5-3.6-0.4-3.5-3.2
			c0.2-9.4,0-9.5,9.1-11c43.3-7.2,86.5-14.4,129.8-21.6C1391.2,198.2,1391.2,198.2,1390.9,206z"/>
		<path id="H_00000161601126256790497770000004648542684745158016_" class="st0" d="M1391.8,187.6c0,2.3-0.4,3.6-3,3.9
			c-9.6,1.3-19.1,2.8-28.6,4.4c-2.9,0.5-2.4-1.3-2.4-2.9c0.3-6.2,0.5-12.3,0.9-18.5c0.2-2.8,0-4.3-3.6-3.6c-6,1.3-17.7,3.8-17.7,3.8
			s-1.3,11.2-1.8,17.1c-0.6,8-0.4,8-8.6,9.5c-6.9,1.2-13.8,2.4-20.6,3.6c-2.8,0.5-4.1,0.2-3.9-3.3c1.2-24.1,2.1-48.2,3.1-72.4
			c0.1-2.4,0.7-3.6,3.2-4c8.7-1.3,17.4-2.7,26.1-4.3c3.4-0.6,3.9,0.5,3.6,3.6c-0.5,6.1-0.4,12.3-0.8,18.5c-0.1,2.5,0.1,3.7,3.1,3.1
			c5.5-1.1,11.1-2.1,16.7-2.8c2.3-0.3,2.6-1.4,2.6-3.3c0.2-6.5,0.7-13,0.8-19.5c0-3,0.7-4.3,4.1-4.7c8.6-1,17.1-2.4,25.6-3.9
			c3.2-0.5,4.2,0.2,4.1,3.7L1391.8,187.6z"/>
		<path id="T_00000071539226204491018710000001928845016616303242_" class="st0" d="M1250,164.7c0.1-2.6-0.6-3.2-3.1-2.8
			c-4.9,0.9-9.9,1.5-14.7,2.5c-2.4,0.5-2.9-0.2-2.8-2.4c0.3-6.8,0.6-13.6,0.8-20.5c0.1-2.5,1.1-3.3,3.5-3.7c21-3.4,42-7,62.9-10.7
			c3-0.5,4.2-0.1,3.9,3.3c-0.5,6.3-0.9,12.6-0.8,19c0,3.2-1.5,3.9-4,4.3c-4.1,0.6-8.2,1.6-12.3,2c-3,0.2-3.8,1.3-3.9,4.2
			c-0.5,14.8-1.4,29.6-1.7,44.4c-0.1,4.2-1.3,5.7-5.4,6.2c-7.1,0.8-14.1,2.2-21.2,3.5c-2.8,0.5-3.5-0.3-3.3-3
			c0.5-7.6,0.8-15.3,1.1-22.9L1250,164.7z"/>
		<path id="_x34_" class="st0" d="M1227.6,224.1c-3.8,0.7-7.6,1.2-11.3,1.9c-2.9,0.6-4.1,0-3.8-3.4c0.9-13,1.5-25.9,2.2-38.9l0,0
			c0.7-13.1,1.4-26.3,2.2-39.4c0.2-2.5-0.2-3.7-3.1-3.2c-12.1,2-24.3,4-36.5,5.7c-2.3,0.3-3.4,1.6-4.6,3.2
			c-21.8,30-43.6,60-65.4,90.1c-1.2,1.6-2.2,3.2-2.3,5.4c-0.3,7.7-0.7,15.3-1.3,22.9c-0.3,3.4,0.8,3.7,3.9,3.2
			c19.7-3.2,39.4-6.1,59.1-9.3c3.1-0.5,3.2,0.8,3.1,3.1c-0.5,7.5-0.5,15-1.4,22.4c-0.5,4.3,1,4.7,4.5,4.1c10.7-1.8,21.3-3.4,32-5
			c2.7-0.4,4-1.1,4.1-4.2c0.2-8,1-16,1.4-23.9c0.1-2.6,1.1-3.4,3.5-3.7c4-0.4,7.9-1.3,11.8-1.7c2.2-0.2,3.1-0.8,3.2-3.2
			c0.3-7.8,0.8-15.6,1.4-23.4C1230.6,224.3,1229.8,223.7,1227.6,224.1z M1172.2,230.1l-31.2,4.2l34.5-51.2L1172.2,230.1z"/>
	</g>
	<g id="THE">
		<path id="E" class="st0" d="M977.1,278.9c20-3.4,39.9-6.7,59.9-10.3c3.6-0.6,5-0.6,4.7,3.7c-0.7,10.5-1.1,21-1.3,31.4
			c-0.1,3.2-1,4.6-4.3,5.1c-33.6,5.6-67.2,11.4-100.8,17.2c-2.6,0.4-5.4,0.5-7.9,1.4c-3.6,1.2-3.8-0.4-3.6-3.2
			c1.2-28.8,2.4-57.6,3.5-86.4c0.6-14,1.2-28,1.6-41.9c0.1-3.2,0.9-4.4,4.3-5c35.9-6,71.8-12.2,107.7-18.5c3.5-0.6,5-0.3,4.7,4
			c-0.8,10.5-1.1,21-1.4,31.4c-0.1,2.9-0.6,4.2-3.9,4.7c-18.7,3-37.4,6.4-56.1,9.6c-4.8,0.8-6.8,4.1-5.3,8.6
			c0.8,2.3,2.2,0.8,3.2,0.6c16.9-2.8,33.8-5.6,50.7-8.6c11-1.9,10.9-2.1,10.5,8.8c-0.3,7.5-0.8,15-0.8,22.5c0,3.5-1.5,4.4-4.5,4.9
			c-17.9,3-35.7,6.1-53.6,9.2C976.2,269.2,976.2,269.2,977.1,278.9z"/>
		<path id="H" class="st0" d="M860.2,338.9c0-6.4-0.1-12.7,0-19c0.1-7.2,0.4-14.3,0.8-21.5c0.1-2.4,0-3.7-3.1-3.1
			c-11.3,2.1-22.6,4-33.9,5.8c-2.7,0.4-3.4,1.6-3.5,4.2c-0.4,12.3-1.2,24.6-1.5,37c-0.1,3.1-1.2,3.9-3.8,4.4
			c-15.8,2.6-31.5,5.3-47.2,8.1c-3.4,0.6-3.4-0.9-3.3-3.4c1.2-31,2.4-61.9,3.6-92.9c0.5-12,1.1-24,1.4-36c0.1-3,1.1-4,3.8-4.4
			c15.4-2.6,30.8-5.2,46.2-8c3.6-0.6,4.5,0.2,4.3,3.9c-0.7,12.1-0.8,24.3-1.5,36.5c-0.2,3.7,1.1,4.1,4.2,3.5c11-2,21.9-4,32.9-5.7
			c2.8-0.4,3.5-1.6,3.5-4.1c0.4-12.5,1.1-25,1.4-37.5c0.1-3.3,0.9-4.4,4.3-4.9c15.4-2.4,30.8-5.1,46.2-7.9c3-0.5,4-0.3,3.9,3.1
			c-1.8,43.1-3.5,86.2-5.1,129.4c-0.1,2.3-0.5,3.4-3.2,3.8C893.8,333,877,336,860.2,338.9z"/>
		<path id="T_00000140719858601814075720000018053633601494627229_" class="st0" d="M673.3,280.3c-10.3,1.8-20.6,3.4-30.9,5.4
			c-3.5,0.7-4.2-0.2-4-3.6c0.6-12.1,1.1-24.3,1.3-36.4c0.1-3.5,1.1-4.8,4.5-5.4c24.1-4,48.2-8.1,72.3-12.3
			c12.9-2.2,25.9-4.4,38.8-6.8c3.4-0.6,5.3-0.8,5,4.1c-0.9,12.3-1.2,24.6-1.5,36.9c-0.1,2.6-0.8,3.6-3.5,4
			c-8.9,1.3-17.7,3.3-26.5,4.5c-3.5,0.5-4.1,1.9-4.2,5c-1,27.3-2.2,54.6-3.1,81.9c-0.1,4.2-1.6,5.5-5.5,6.2
			c-13.8,2.1-27.5,4.6-41.3,7.1c-3.7,0.7-4-0.7-3.9-3.8c1-21.6,1.8-43.2,2.6-64.9C673.5,295.1,673.3,288,673.3,280.3z"/>
	</g>
	<g id="MAY">
		<path id="Y_00000157988051625228383770000016625934320323679139_" class="st0" d="M504.1,309.1c7.2-14.7,14.3-28.8,21.2-43
			c0.9-2.5,3.2-4.2,5.8-4.4c14.6-2.3,29.2-5,43.8-7.5c1.3-0.1,2.6-0.2,3.9-0.2c-8.9,17.7-17.6,35-26.3,52.4
			c-7.4,14.7-14.8,29.4-22.2,44c-1.2,2.2-1.8,4.6-1.9,7.1c-0.4,12-1.1,24-1.3,36c-0.1,3.4-0.9,4.9-4.4,5.4
			c-14.8,2.3-29.6,4.8-44.3,7.5c-3.3,0.6-4,0.1-3.8-3.2c0.6-12.1,0.9-24.3,1.4-36.5c0.1-2.6-0.5-5.3-1.7-7.6
			c-13-25.3-25.7-50.6-38.8-75.9c-2.1-4-1.5-4.9,2.9-5.6c14.3-2.2,28.5-4.8,42.8-7.4c3-0.6,4.4,0.4,5.7,3.1
			C492.3,285.2,498.1,296.9,504.1,309.1z"/>
		<path id="A_00000041998874862610705270000017966721630436402326_" class="st0" d="M460.2,405.5c-13.3-40.3-26.6-80.7-39.8-121.1
			c-0.9-2.7-1.9-3.4-4.9-2.8c-23.7,4.3-47.5,8.4-71.3,12.2c-3.8,0.6-5.3,2.3-6.5,5.5c-9.2,24.5-18.5,49-27.8,73.6
			c-8.3,21.9-16.5,43.8-25.2,66.7c18.5-3.2,36-6.3,53.5-9.2c2.1-0.4,2.6-1.8,3.2-3.3c2.5-5.6,4.9-11.3,7.3-16.9c0.5-1.8,2-3,3.9-3.2
			c13.1-2.1,26.2-4.5,39.3-6.8c2.3-0.4,3.7,0,4.5,2.4c1.6,4.5,3.6,8.9,5.2,13.4c0.9,2.4,2,3.3,4.7,2.8c17-3.1,34.1-6,51.1-8.8
			C460.8,409.5,461.2,408.5,460.2,405.5z M361.6,369.8l10.8-32l10.2,29.8L361.6,369.8z"/>
		<path id="M_00000109017503239291433430000015719375670577489059_" class="st0" d="M232.9,410.1c-4.8,12.4-9.8,24.7-14.5,37.1
			c-1.1,3-2.7,4.4-6,4.9c-7.2,1-14.4,2.3-21.6,3.8c-3.2,0.6-4.7-0.1-5.9-3.3c-3.6-9.5-7.5-18.8-11.3-28.2c-0.8-2.1-1.6-4.2-3.7-5.8
			c-0.4,11.9-1,23.7-1.2,35.4c-0.1,4.1-0.9,5.9-5.6,6.5c-14.7,1.6-29.3,3.9-44,6.2c-2.9,0.5-3.3-0.5-3.2-3
			c1-43.1,1.9-86.3,2.7-129.4c0.1-2.8,1.3-3.1,3.6-3.4c22-3.3,44.1-6.7,66.1-10.4c3.4-0.6,3.5,1.4,4.1,3.4
			c4.6,15.3,9.1,30.5,14.1,47.1c2.3-9.3,4.4-17.4,6.4-25.5c2.2-9,4.5-18.1,6.6-27.1c0.5-2.2,1.2-3.3,3.7-3.7
			c20.3-3.4,40.7-6.9,61-10.5c3.2-0.6,3,1.1,3,3.3c-0.9,22.3-1.7,44.6-2.5,66.9c-0.8,20.5-1.8,40.9-2.4,61.4
			c-0.1,3.2-0.8,4.6-4.2,5.2c-13.5,2.1-26.9,4.5-40.3,6.9c-3,0.5-4.5,0.4-4.2-3.5c0.6-7.3,0.5-14.6,0.7-22c0.7-4,0.2-7.9,0.3-11.9
			C234.2,408.9,233.5,409.4,232.9,410.1z"/>
	</g>
</g>
<g id="Yellow_Text_x2F_Keyline">
	<g id="TM">
		<polyline id="M" class="st1" points="948.3,173.2 948.5,168 951,172.5 953.8,167.2 953.8,172.1 		"/>
		<g id="T">
			<polyline class="st1" points="942,169.5 944.7,168.9 947.4,168.2 			"/>
			<line class="st2" x1="944.6" y1="173.8" x2="944.7" y2="168.9"/>
		</g>
	</g>
	<g id="Day">
		<polygon id="Y" class="st3" points="910.1,180.3 931.9,176.5 931.9,156.6 951.4,114.2 928.9,118.1 920.9,137.6 912.1,120.4 
			889.5,123.7 909.7,161.1 		"/>
		<path id="A_00000140731543773096609250000011190054701846750338_" class="st3" d="M852.7,189.3l3.5-10.2l19.3-2.9l3.4,8.6
			l24.3-4.4l-19.7-55.6l-34.7,4.9L829.2,193L852.7,189.3z M865.3,147.3l5.6,13.8l-9.6,0.8L865.3,147.3z"/>
		<path id="D" class="st3" d="M799.3,198.6c8.9-1.6,16.3-1.5,23.7-11.2c6.6-7.2,9-16.8,8.8-25.4c-0.2-8.5-3.1-17.2-10-22.1
			c-6.7-4.6-15.2-4.1-24-2.5l-27.3,4.5l0.3,60.5L799.3,198.6z M798.4,157.9c3.2-0.6,6.5-1.2,9,0.6c2.5,1.6,4,4.3,4.1,7.2
			c0.1,3.1-1.9,6-4.3,8.8c-3.3,2.1-5.3,1.6-8.5,2c-2,0.3-8.1,0.6-8.1,0.6l-0.1-17.6L798.4,157.9z"/>
	</g>
	<g id="Wars">
		<path id="RS" class="st3" d="M630.6,227.7l-0.5-18.4l11.2,8.7c5.3,4.2,10.6,5.8,15.8,4.8l20.4-3.7l0,0l30.3-6.3
			c5-0.9,7.4-3.4,11.4-7.5c3.9-4.1,5.9-8.6,5.7-13.4c-0.1-5.8-0.4-9.2-4.1-12.3l-7.7-5.8c-0.6-0.3-1-0.9-1.1-1.6
			c0-1.2,1.2-1.6,2.2-1.8l30-5l-0.1-19.4l-42.4,7.8c-5.1,0.9-8.8,3.6-12.7,8.1c-3.9,4.4-5.4,8.5-5.2,13.5c0.2,6.1,1.4,10.2,5.6,12.4
			l6.9,3.9c0.2,0.1,0.2,0.3,0.2,0.5c0,1.2-0.5,1.9-1.5,2.1l-20,3.7l0,0l-11.3,2c-1.6,0.4-3.3-0.3-4.1-1.7c3.9-2.2,7.2-2.9,9.6-6.9
			c2.3-3.6,3.5-7.9,3.5-12.2c0-5.3-2.6-10.3-7-13.3c-4.4-3.3-10.1-4.5-15.5-3.4l-43.8,8.1l0.1,60.7L630.6,227.7z M644.4,180.7
			c1.2-0.2,2.4,0,3.3,0.8c0.9,0.7,1.5,1.8,1.5,3c0,1.3-0.5,2.5-1.3,3.4c-0.8,1-1.9,1.7-3.2,2l-13.3,2.4l-0.2-9.2L644.4,180.7z"/>
		<path id="A_00000042725502177271755110000015321812374154304129_" class="st3" d="M550.2,241.8l3.1-9.3l21.1-3.2l2.1,8l24.3-4.4
			l-18.6-57.5l-35.8,6.8l-19.6,63.3L550.2,241.8z M564.5,198.5l5.3,14.9l-10.6,1.5L564.5,198.5z"/>
		<polygon id="W" class="st3" points="479.4,254.6 487,230.4 493.9,251.8 515.6,247.8 536.5,184.1 512.3,188.5 507.1,206.7 
			501.3,190.5 474.7,195.2 470,213 465.4,196.9 439.6,200.3 457.6,258.5 		"/>
	</g>
	<path id="R" class="st3" d="M363.4,257.9l11.2,8.9c4.8,3.7,11,5.2,16.9,4.1l34.9-6.3v-21.8l-28.4,5c-1.8,0.3-4.6,1-5.6-0.4
		c3.9-2.2,6.5-4.1,8.9-8c2.3-3.6,3.5-7.9,3.5-12.2c0-5.3-2.6-10.3-7-13.3c-4.6-3.3-7.6-4.2-13.3-3.1l-44.6,8l-2.1,60.9l25.9-4.5
		L363.4,257.9z M378.7,228.7c1.2-0.2,2.4,0,3.3,0.8c0.9,0.7,1.5,1.8,1.5,3c0,1.3-0.5,2.5-1.3,3.4c-0.8,1-1.9,1.7-3.2,2l-14.9,2.7
		l-0.2-9.2L378.7,228.7z"/>
	<path id="A" class="st3" d="M283.7,288.8l2.1-8.9l22.6-3.6l1.9,7.9l23.9-3.6L316,223.2l-35.4,6.1l-21.1,63.9L283.7,288.8z
		 M298.4,244.7l5.3,16.4l-11.2,1.2L298.4,244.7z"/>
	<path id="ST__x2B__Keyline" class="st3" d="M1433.3,108.3c-0.1-17.9-14.7-32.4-32.6-32.3c-1.8,0-3.6,0.2-5.3,0.5l-435.8,74.8
		l3.6,20.7L1399,97.2c6.2-1.1,12.1,3.1,13.2,9.3c0.1,0.6,0.2,1.1,0.2,1.7L1402,390.4c-0.2,4.3-3.3,7.8-7.5,8.6l-1291,230.7
		c-3.4,0.6-6.7-1.7-7.3-5.1c-0.1-0.4-0.1-0.8-0.1-1.2l3.1-293.9c0.1-5.2,3.6-9.7,8.2-10.5l48.2-8.3l0,0.1l28.2-4.8
		c5.2-1,9.9-3.6,13.4-7.5c3.9-4.1,5.9-8.6,5.7-13.4c-0.1-5.5-2.7-10.6-7-13.9l-5-4c-0.2-0.1-0.2-0.2-0.2-0.5c-0.2-1,0.5-1.9,1.4-2.1
		c0,0,0.1,0,0.1,0l13.2-2.4l0,0l14-2.2l-0.9,40.2l22.8-3.8l1.6-40.7l27.6-4.7l-0.1-19.6l-53.7,9.4l0,0l-35.2,6.3
		c-5.3,1-10,3.8-13.5,8c-3.9,4.4-5.8,9.1-5.6,14.1c0.2,6.1,2.3,10.2,6.5,12.4l5.4,4.5l-70.5,12.1c-14.7,2.5-25.5,15.6-25.7,31
		l-3.1,293.9c-0.2,15.1,11.9,27.4,27,27.6c1.7,0,3.4-0.1,5.1-0.4l1291-230.7c13.9-2.5,24.2-14.4,24.8-28.5l10.4-282.5l0-0.2
		L1433.3,108.3z"/>
</g>
</svg>
